<?xml version="1.0" standalone="no"?>
<!DOCTYPE svg PUBLIC "-//W3C//DTD SVG 20010904//EN"
 "http://www.w3.org/TR/2001/REC-SVG-20010904/DTD/svg10.dtd">
<svg version="1.0" xmlns="http://www.w3.org/2000/svg"
 width="500.000000pt" height="500.000000pt" viewBox="0 0 500.000000 500.000000"
 preserveAspectRatio="xMidYMid meet">

<g transform="translate(0.000000,500.000000) scale(0.100000,-0.100000)"
fill="#000000" stroke="none">
<path d="M3128 3582 c-330 -2 -396 -5 -392 -16 3 -7 -2 -16 -11 -20 -9 -3 -13
-2 -10 4 3 6 -1 10 -9 10 -9 0 -16 -4 -16 -9 0 -6 -100 -10 -247 -11 -289 -1
-398 -11 -490 -45 -165 -63 -229 -129 -293 -302 -7 -18 -16 -33 -20 -33 -30 0
-33 -81 -32 -1023 0 -522 3 -951 6 -955 8 -7 146 49 146 60 0 5 5 6 12 2 7 -5
8 -3 3 5 -5 9 -11 9 -17 3 -6 -6 -17 -8 -25 -5 -8 3 7 16 42 35 30 16 61 26
67 22 6 -4 8 -3 5 3 -3 5 17 21 46 35 60 29 143 101 199 171 21 27 38 45 38
40 0 -5 -6 -15 -12 -22 -11 -11 -9 -12 8 -3 12 6 24 9 27 6 10 -11 58 96 78
174 16 64 19 111 19 319 l0 243 33 0 c299 3 363 8 433 32 158 55 288 178 379
358 14 27 25 54 25 60 0 7 -142 10 -435 10 l-435 0 0 209 0 209 453 4 452 4
75 28 c41 16 93 38 115 49 51 27 126 97 118 110 -3 6 -2 7 3 4 13 -7 151 134
187 191 15 23 24 42 20 43 -24 3 -192 4 -545 1z"/>
</g>
</svg>
